<svg width="1142" height="356" viewBox="0 0 1142 356" fill="none" xmlns="http://www.w3.org/2000/svg">
<path d="M1209.73 781.878L1239.76 314.698C1240.02 310.543 1237.06 306.878 1232.94 306.27L799.292 242.279L596.48 212.351L-176.621 98.2682C-181.248 97.5853 -185.472 101.001 -185.772 105.669L-223.312 689.777C-223.596 694.186 -220.251 697.99 -215.842 698.274L1201.23 789.348C1205.64 789.632 1209.45 786.287 1209.73 781.878Z" fill="url(#paint0_linear_0_1)"/>
<g filter="url(#filter0_f_0_1)">
<path d="M646 556V-37.7051C646 -41.7563 642.972 -45.1681 638.949 -45.6486L259.643 -90.9569L81.9355 -112.184L-594.051 -192.931C-598.812 -193.5 -603 -189.782 -603 -184.988V556C-603 560.418 -599.418 564 -595 564H638C642.418 564 646 560.418 646 556Z" fill="url(#paint1_linear_0_1)"/>
</g>
<path style="mix-blend-mode:screen" d="M628.941 -89.0003L702.352 -69.3301L603.409 299.928L529.999 280.258L628.941 -89.0003Z" fill="url(#paint2_linear_0_1)"/>
<path style="mix-blend-mode:screen" d="M751.941 -89.0003L825.352 -69.3301L726.409 299.928L652.999 280.258L751.941 -89.0003Z" fill="url(#paint3_linear_0_1)"/>
<path d="M1030.09 87.353C1029.24 87.6623 1023.84 89.4827 1023.07 89.91C1014.56 94.638 1015.51 104.859 1019.53 115.912C1023.69 127.346 1028.75 136.216 1038.58 133.697C1039.11 133.559 1045.45 131.195 1045.98 131.003C1056.2 127.283 1060.93 114.495 1056.54 102.442C1054.43 96.6529 1050.46 91.8108 1045.5 88.9805C1040.54 86.1517 1035 85.566 1030.09 87.353Z" fill="#4763DC" stroke="#BEC5E4" stroke-width="1.1619"/>
<path d="M1025.43 88.9805C1014.87 92.8231 1009.92 105.867 1014.38 118.121C1018.84 130.37 1031.02 137.187 1041.58 133.344C1052.13 129.501 1057.08 116.454 1052.62 104.205C1050.48 98.3209 1046.41 93.4116 1041.31 90.5565C1036.21 87.7013 1030.5 87.1353 1025.43 88.9805Z" fill="#7285DC" stroke="#BEC5E4" stroke-width="1.62667"/>
<path fill-rule="evenodd" clip-rule="evenodd" d="M1041.56 109.49C1042.22 109.538 1042.82 109.155 1043.08 108.52C1043.34 107.884 1043.2 107.121 1042.74 106.59C1042.27 106.059 1041.57 105.865 1040.95 106.095C1040.13 106.409 1039.73 107.39 1040.06 108.298C1040.3 108.97 1040.89 109.441 1041.56 109.49ZM1023.68 114.394C1024.01 115.309 1024.96 115.805 1025.8 115.5C1026.64 115.195 1027.05 114.205 1026.71 113.29C1026.56 112.847 1026.24 112.481 1025.84 112.271C1025.45 112.064 1024.99 112.032 1024.59 112.185C1023.76 112.49 1023.35 113.478 1023.68 114.394Z" fill="#BEC5E4"/>
<path fill-rule="evenodd" clip-rule="evenodd" d="M1024.94 105.174L1028.59 103.851L1032.59 108.603L1036.16 118.469L1034.34 119.131L1033.41 116.574L1030.12 117.765L1029.33 115.572L1032.62 114.382L1032.22 113.285L1028.93 114.476L1028.13 112.284L1030.72 111.348L1024.94 105.174ZM1036.27 101.072L1032.61 102.396L1032.59 108.604L1036.16 118.47L1037.99 117.808L1037.07 115.251L1040.35 114.059L1039.56 111.867L1036.27 113.058L1035.87 111.963L1039.16 110.771L1038.37 108.579L1035.78 109.516L1036.27 101.072Z" fill="#BEC5E4"/>
<path d="M1026.82 92.8002C1018.08 95.9809 1013.99 106.778 1017.68 116.921C1021.37 127.061 1031.45 132.703 1040.19 129.522C1048.92 126.342 1053.02 115.542 1049.33 105.402C1047.55 100.532 1044.19 96.4681 1039.96 94.1047" stroke="#BEC5E4" stroke-width="1.1619"/>
<path d="M1016.29 166.991C1015.8 167.115 1012.7 167.819 1012.25 168.013C1007.26 170.154 1007.22 175.871 1008.82 182.223C1010.49 188.794 1012.79 193.994 1018.38 193.152C1018.68 193.105 1022.33 192.152 1022.63 192.076C1028.5 190.59 1031.84 183.769 1030.09 176.843C1029.25 173.516 1027.32 170.609 1024.73 168.761C1022.14 166.914 1019.11 166.277 1016.29 166.991Z" fill="#E8612F"/>
<path d="M1013.15 167.282C1007.08 168.817 1003.6 175.767 1005.39 182.809C1007.17 189.848 1013.53 194.311 1019.6 192.776C1025.67 191.241 1029.14 184.289 1027.36 177.25C1026.5 173.869 1024.52 170.919 1021.86 169.05C1019.2 167.18 1016.06 166.545 1013.15 167.282Z" fill="#F58852"/>
<path fill-rule="evenodd" clip-rule="evenodd" d="M1014.77 178.79C1015.27 178.965 1015.79 179.045 1016.3 179.029L1016.3 179.03C1017.17 179.018 1018.04 179.185 1018.87 179.521C1019.52 179.815 1020.02 180.427 1020.2 181.163C1020.4 181.908 1020.26 182.7 1019.82 183.283C1019.4 183.826 1018.86 184.24 1018.24 184.486L1018.75 186.51L1016.66 187.039L1016.14 184.97C1015.48 185.029 1014.81 184.916 1014.19 184.643C1013.46 184.279 1012.93 183.551 1012.77 182.703L1012.74 182.583L1012.79 182.311L1014.87 181.787L1014.96 182.166C1015.02 182.562 1015.26 182.908 1015.6 183.081C1015.97 183.211 1016.37 183.223 1016.73 183.115C1017.13 183.043 1017.49 182.851 1017.78 182.56C1017.97 182.346 1018.03 182.037 1017.95 181.747C1017.88 181.493 1017.7 181.286 1017.47 181.194C1017 181.009 1016.52 180.92 1016.03 180.931C1015.16 180.967 1014.29 180.806 1013.47 180.453C1012.8 180.155 1012.31 179.53 1012.13 178.781C1011.94 178.07 1012.05 177.315 1012.44 176.727C1012.77 176.233 1013.22 175.843 1013.74 175.595L1013.21 173.495L1015.3 172.966L1015.82 175.035C1016.52 174.958 1017.23 175.122 1017.85 175.503C1018.49 175.959 1018.94 176.669 1019.1 177.468L1019.2 177.847L1016.94 178.418L1016.84 178.039C1016.76 177.642 1016.54 177.289 1016.23 177.054C1015.93 176.863 1015.58 176.817 1015.27 176.927C1014.94 176.97 1014.64 177.138 1014.42 177.4C1014.27 177.635 1014.23 177.935 1014.31 178.214C1014.37 178.473 1014.54 178.69 1014.77 178.79ZM1022.82 179.697C1023.34 179.788 1023.84 179.534 1024.1 179.052C1024.36 178.57 1024.31 177.956 1023.99 177.498C1023.66 177.041 1023.12 176.83 1022.62 176.963C1021.94 177.145 1021.54 177.889 1021.73 178.634C1021.87 179.185 1022.3 179.605 1022.82 179.697ZM1008.29 182.14C1008.48 182.89 1009.19 183.358 1009.87 183.184C1010.56 183.01 1010.96 182.261 1010.78 181.51C1010.69 181.147 1010.47 180.833 1010.17 180.634C1009.87 180.439 1009.52 180.377 1009.19 180.466C1008.5 180.64 1008.1 181.388 1008.29 182.14Z" fill="white"/>
<path d="M861.32 88.8728L869.328 83.6606L984.251 104.441C987.405 105.012 989.759 107.943 989.759 111.428V263.422C989.732 263.79 989.707 264.132 989.685 264.453C989.6 265.643 989.537 266.53 989.421 267.265C989.278 268.175 989.06 268.8 988.641 269.414C988.209 270.047 987.541 270.698 986.431 271.622C985.75 272.19 984.925 272.843 983.911 273.645C983.278 274.146 982.571 274.705 981.78 275.338C979.03 277.251 977.048 278.748 975.529 279.896C975.416 279.981 975.307 280.064 975.199 280.145C973.622 281.336 972.603 282.088 971.707 282.546C970.011 283.411 968.767 283.23 964.605 282.478L859.497 263.472C855.349 262.722 852.333 259.111 852.333 254.896V95.3914L861.32 88.8728Z" fill="#99A8EA" stroke="#597AFA" stroke-width="1.1619"/>
<path d="M852.333 247.078V95.7887L968.494 116.382C972.101 117.021 974.729 120.156 974.729 123.818V274.864C974.729 279.563 970.484 283.121 965.858 282.301L867.199 264.811C858.599 263.286 852.333 255.811 852.333 247.078Z" fill="#DDE2F8" stroke="#597AFA" stroke-width="1.1619"/>
<path d="M974.153 272.847V208.778C974.153 194.54 954.123 226.519 934.415 226.519C921.866 226.519 900.428 235.062 897.813 242.181C893.566 253.746 869.055 242.729 862.258 239.443C856.82 236.815 852.846 241.634 852.846 243.277V255.181C852.846 258.559 855.255 261.449 858.58 262.041C891.914 267.973 951.338 278.448 963.173 280.514C973.212 283.58 974.502 276.863 974.153 272.847Z" fill="#F7F8FE"/>
<path d="M974.153 273.613V220.496C974.153 206.258 945.395 213.925 935.983 230.9C926.571 247.876 912.454 230.9 897.813 246.233C889.447 254.995 869.055 254.447 862.258 251.162C856.82 248.533 852.846 253.352 852.846 254.995C852.846 258.924 855.655 262.286 859.523 262.974C893.022 268.934 951.449 279.233 963.173 281.28C973.212 284.346 974.502 277.629 974.153 273.613Z" fill="#F1F3FF"/>
<path d="M900.868 117.122L913.151 119.354L955.602 127.067C959.469 127.769 962.281 131.138 962.281 135.069V259.488C962.281 264.562 957.686 268.398 952.694 267.491L870.7 252.594C866.832 251.891 864.02 248.523 864.02 244.591V120.172C864.02 115.098 868.615 111.263 873.607 112.17L876.303 112.659" stroke="#BAC8FD" stroke-width="1.1619" stroke-linecap="round"/>
<path d="M949.4 135.99L974.142 139.857V125.584C974.142 121.584 973.807 120.368 971.692 118.5L944.657 127.486L949.4 135.99Z" fill="#D7DBF5"/>
<path d="M836.578 112.545L857.219 116.092L856.464 127.5C856.081 133.27 851.151 137.154 845.451 136.175V136.175C839.751 135.196 835.44 129.724 835.823 123.953L836.578 112.545Z" fill="#F1F3FA"/>
<path d="M857.22 116.09L876.829 119.46L876.039 131.39C875.676 136.872 870.992 140.562 865.577 139.631V139.631C860.162 138.701 856.067 133.502 856.43 128.02L857.22 116.09Z" fill="#DDE3F9"/>
<path d="M876.827 119.46L897.468 123.007L896.713 134.414C896.33 140.185 891.4 144.069 885.7 143.09V143.09C880 142.11 875.689 136.638 876.072 130.867L876.827 119.46Z" fill="#F1F3FA"/>
<path d="M897.469 123.007L918.11 126.554L917.355 137.961C916.972 143.732 912.042 147.616 906.342 146.637V146.637C900.642 145.658 896.331 140.185 896.714 134.415L897.469 123.007Z" fill="#DDE3F9"/>
<path d="M918.111 126.552L937.72 129.921L936.93 141.851C936.567 147.333 931.883 151.023 926.468 150.093V150.093C921.053 149.162 916.958 143.964 917.321 138.482L918.111 126.552Z" fill="#F1F3FA"/>
<path d="M937.718 129.922L958.359 133.469L957.604 144.876C957.221 150.647 952.291 154.531 946.591 153.551V153.551C940.891 152.572 936.58 147.1 936.963 141.329L937.718 129.922Z" fill="#DDE3F9"/>
<path d="M851.395 96.2005L872.032 99.7464L857.215 116.135L836.579 112.589L851.395 96.2005Z" fill="#F7F8FE"/>
<path d="M872.234 99.8323L891.839 103.344L876.818 119.505L857.214 116.137L872.234 99.8323Z" fill="#E8EDFF"/>
<path d="M891.94 103.361L911.55 106.749L897.456 123.049L876.82 119.503L891.94 103.361Z" fill="#F7F8FE"/>
<path d="M911.651 106.896L932.278 110.512L918.091 126.597L897.455 123.051L911.651 106.896Z" fill="#E8EDFF"/>
<path d="M932.325 110.525L951.97 114.033L937.695 129.963L918.09 126.594L932.325 110.525Z" fill="#F7F8FE"/>
<path d="M952.265 114.045L969.739 117.145C970.974 117.364 971.312 118.291 970.502 119.235L958.307 133.443L937.696 129.965L952.265 114.045Z" fill="#E8EDFF"/>
<path d="M836.629 112.545L835.873 123.952C835.491 129.723 839.802 135.195 845.502 136.175V136.175C851.202 137.154 856.132 133.27 856.514 127.499L857.27 116.092" stroke="#BAC8FD" stroke-width="1.1619"/>
<path d="M857.271 116.092L856.481 128.022C856.118 133.504 860.213 138.702 865.628 139.633V139.633C871.043 140.563 875.727 136.873 876.09 131.391L876.88 119.461" stroke="#BAC8FD" stroke-width="1.1619"/>
<path d="M876.883 119.462L876.127 130.869C875.745 136.64 880.056 142.112 885.755 143.092V143.092C891.455 144.071 896.386 140.187 896.768 134.416L897.524 123.009" stroke="#BAC8FD" stroke-width="1.1619"/>
<path d="M897.225 122.957L896.479 134.214C896.092 140.067 900.464 145.618 906.246 146.612V146.612C912.028 147.605 917.029 143.665 917.417 137.811L918.163 126.554" stroke="#BAC8FD" stroke-width="1.1619"/>
<path d="M918.203 125.968L917.374 138.485C917.011 143.967 921.106 149.165 926.521 150.096V150.096C931.936 151.026 936.62 147.336 936.983 141.854L937.812 129.337" stroke="#BAC8FD" stroke-width="1.1619"/>
<path d="M937.81 129.327L937.015 141.331C936.633 147.102 940.943 152.574 946.643 153.553V153.553C952.343 154.533 957.274 150.649 957.656 144.878L958.451 132.873" stroke="#BAC8FD" stroke-width="1.1619"/>
<path d="M836.626 112.572L851.957 95.6382" stroke="#BAC8FD" stroke-width="1.1619" stroke-linecap="round"/>
<path d="M857.104 116.393L872.135 99.9727" stroke="#BAC8FD" stroke-width="1.1619" stroke-linecap="round"/>
<path d="M876.856 119.878L891.537 103.894" stroke="#BAC8FD" stroke-width="1.1619" stroke-linecap="round"/>
<path d="M897.24 123.105L911.275 107.253" stroke="#BAC8FD" stroke-width="1.1619" stroke-linecap="round"/>
<path d="M918.154 126.592L932.063 111.047" stroke="#BAC8FD" stroke-width="1.1619" stroke-linecap="round"/>
<path d="M937.775 129.87L951.722 114.354" stroke="#BAC8FD" stroke-width="1.1619" stroke-linecap="round"/>
<path d="M958.358 133.568L971.055 118.452" stroke="#BAC8FD" stroke-width="1.1619" stroke-linecap="round"/>
<path fill-rule="evenodd" clip-rule="evenodd" d="M908.024 181.322C907.903 181.497 907.895 181.741 908.003 181.957L926.515 219.123C926.617 219.33 926.811 219.481 927.024 219.52L933.603 220.74C934.073 220.827 934.381 220.357 934.154 219.9L912.305 176.028C912.188 175.796 911.891 175.741 911.761 175.928L908.025 181.322L908.024 181.322Z" fill="#11AF4B"/>
<path fill-rule="evenodd" clip-rule="evenodd" d="M907.561 188.439L910.875 189.053C911.108 189.096 911.244 189.381 911.121 189.565L909.368 192.19L907.614 194.815C907.491 195 907.2 194.946 907.09 194.718L905.53 191.479L903.97 188.239C903.861 188.012 904.015 187.782 904.248 187.825L907.56 188.439L907.561 188.439ZM903.38 194.506L906.694 195.12C906.927 195.163 907.063 195.447 906.94 195.632L905.187 198.257L903.433 200.882C903.31 201.066 903.019 201.013 902.909 200.785L901.35 197.546L899.79 194.307C899.68 194.079 899.835 193.849 900.067 193.892L903.381 194.506L903.38 194.506ZM899.169 200.675L902.483 201.289C902.716 201.333 902.853 201.617 902.73 201.801L900.976 204.426L899.223 207.051C899.099 207.236 898.809 207.182 898.699 206.954L897.138 203.715L895.578 200.476C895.469 200.248 895.623 200.018 895.855 200.061L899.169 200.675ZM895.084 207.052L898.397 207.666C898.63 207.71 898.767 207.994 898.644 208.178L896.89 210.803L895.136 213.429C895.013 213.613 894.722 213.559 894.612 213.332L893.052 210.092L891.493 206.853C891.383 206.625 891.537 206.395 891.77 206.438L895.083 207.052L895.084 207.052ZM902.945 208.509L906.257 209.123C906.491 209.166 906.628 209.451 906.505 209.635L904.751 212.26L902.998 214.886C902.874 215.07 902.583 215.016 902.474 214.789L900.914 211.549L899.353 208.31C899.244 208.083 899.398 207.852 899.63 207.896L902.945 208.51L902.945 208.509ZM910.91 209.985L914.224 210.6C914.456 210.643 914.594 210.927 914.47 211.111L912.717 213.736L910.963 216.362C910.84 216.546 910.549 216.492 910.439 216.265L908.879 213.025L907.319 209.786C907.209 209.558 907.364 209.328 907.596 209.371L910.91 209.985V209.985ZM918.875 211.462L922.19 212.076C922.422 212.119 922.559 212.403 922.436 212.588L920.682 215.212L918.928 217.838C918.805 218.022 918.514 217.968 918.405 217.741L916.845 214.501L915.285 211.262C915.175 211.035 915.329 210.805 915.562 210.848L918.875 211.462V211.462ZM907.213 202.166L910.527 202.78C910.76 202.823 910.897 203.108 910.774 203.292L909.02 205.917L907.267 208.542C907.143 208.726 906.853 208.673 906.743 208.445L905.183 205.206L903.623 201.967C903.513 201.739 903.668 201.509 903.9 201.552L907.213 202.166V202.166ZM914.97 203.604L918.283 204.218C918.516 204.261 918.653 204.545 918.53 204.73L916.776 207.355L915.023 209.98C914.899 210.164 914.609 210.11 914.499 209.883L912.939 206.644L911.378 203.404C911.269 203.177 911.423 202.946 911.656 202.989L914.97 203.604V203.604ZM911.477 196.007L914.79 196.621C915.023 196.664 915.16 196.948 915.037 197.133L913.283 199.758L911.53 202.383C911.407 202.567 911.115 202.513 911.006 202.286L909.446 199.047L907.886 195.808C907.776 195.58 907.93 195.349 908.163 195.392L911.477 196.007Z" fill="#FF7300"/>
<path d="M828.985 158.07C828.982 157.78 828.852 157.489 828.681 157.265C828.467 157.039 828.169 156.892 827.915 156.865L801.205 154.058C800.909 154.026 800.656 154.116 800.445 154.297C800.235 154.481 800.153 154.75 800.155 155.04L800.337 177.206C800.339 177.492 800.426 177.778 800.64 178.008C800.854 178.237 801.109 178.376 801.406 178.408L828.115 181.215C828.369 181.242 828.664 181.16 828.876 180.975C829.043 180.786 829.168 180.522 829.165 180.236L828.984 158.069L828.985 158.07Z" fill="#D2DBFF" stroke="#D2DBFF" stroke-width="1.62202"/>
<path d="M813.204 190.418L813.817 174.704" stroke="#D2DBFF" stroke-width="1.62202" stroke-linecap="round" stroke-linejoin="round"/>
<path d="M820.178 192.25L807.546 190.17" stroke="#D2DBFF" stroke-width="1.62202" stroke-linecap="round" stroke-linejoin="round"/>
<path d="M826.673 157.828C826.671 157.537 826.542 157.246 826.371 157.022C826.158 156.796 825.859 156.649 825.605 156.622L798.895 153.815C798.599 153.784 798.346 153.873 798.136 154.055C797.925 154.238 797.843 154.507 797.845 154.798L798.027 176.963C798.029 177.25 798.116 177.536 798.33 177.765C798.544 177.994 798.8 178.134 799.096 178.165L825.805 180.972C826.059 180.999 826.355 180.917 826.565 180.733C826.733 180.543 826.858 180.28 826.855 179.993L826.673 157.827L826.673 157.828Z" fill="#FAFBFF" stroke="#A4B7FF" stroke-width="1.1619"/>
<path d="M824.472 160.151C824.467 159.547 823.976 159.007 823.398 158.946L804.833 156.995C804.254 156.934 803.772 157.372 803.777 157.976L803.917 175.007C803.922 175.61 804.412 176.151 804.99 176.212L823.556 178.163C824.133 178.224 824.617 177.785 824.612 177.182L824.472 160.152L824.472 160.151Z" fill="#D2DBFF"/>
<path d="M813.548 159.003C813.543 158.4 813.055 157.86 812.458 157.797L801.952 156.693C801.357 156.63 800.876 157.069 800.881 157.672L801.021 174.703C801.026 175.307 801.515 175.847 802.111 175.91L812.617 177.014C813.213 177.077 813.693 176.638 813.688 176.034L813.548 159.005L813.548 159.003Z" fill="#5FDCF2"/>
<path d="M816.365 174.489L804.96 173.291L804.836 158.147" stroke="white" stroke-width="1.62202" stroke-linecap="round" stroke-linejoin="round"/>
<path d="M804.976 173.188L814.681 164.119" stroke="white" stroke-width="1.62202" stroke-linecap="round" stroke-linejoin="round"/>
<path d="M818.566 282.653L867.133 265.49L858.126 252.831L818.566 265.49V282.653Z" fill="#7285DC" stroke="#B2C1FF" stroke-width="1.1619" stroke-linejoin="round"/>
<path d="M790.812 275.713L818.364 282.588L818.771 265.649L799.211 261.106L790.812 275.713Z" fill="#95A3E5" stroke="#B2C1FF" stroke-width="1.1619" stroke-linejoin="round"/>
<path d="M799.331 261.107L839.134 248.326L858.123 252.83L818.479 265.591L799.331 261.107Z" fill="#7285DC" stroke="#B2C1FF" stroke-width="1.1619" stroke-linejoin="round"/>
<path d="M828.474 259.055L823.828 260.712L823.437 260.474L824.248 258.597C824.363 258.316 824.411 258.104 824.393 257.962C824.376 257.816 824.284 257.693 824.118 257.592C823.894 257.456 823.599 257.384 823.232 257.377C822.865 257.37 822.495 257.433 822.122 257.566C821.674 257.726 821.402 257.898 821.307 258.081C821.212 258.262 821.302 258.436 821.577 258.603L820.675 258.924C820.282 258.684 820.173 258.416 820.349 258.119C820.529 257.82 820.971 257.546 821.675 257.294C822.335 257.059 822.96 256.937 823.553 256.928C824.144 256.918 824.612 257.018 824.959 257.229C825.38 257.486 825.436 257.95 825.128 258.621L824.471 260.055L828.031 258.785L828.474 259.055Z" fill="#B2C1FF"/>
<path d="M831.797 256.484L832.781 256.133L833.224 256.403L832.241 256.754L833.233 257.358L832.327 257.681L831.335 257.077L828.105 258.228L827.785 258.033L827.998 255.097L828.957 254.754L831.797 256.484ZM828.685 257.594L830.891 256.807L828.794 255.53L828.805 255.64L828.685 257.594Z" fill="#B2C1FF"/>
<path d="M835.078 254.781L834.754 255.421L836.199 256.3L835.264 256.634L830.988 254.03L831.924 253.697L834.038 254.984L835.075 252.573L836.205 252.17L835.302 254.315L840.7 254.696L839.58 255.095L835.078 254.781Z" fill="#B2C1FF"/>
<path d="M856.728 289.012L905.295 271.849L895.8 258.492L856.728 271.849V289.012Z" fill="#7285DC" stroke="#B2C1FF" stroke-width="1.1619" stroke-linejoin="round"/>
<path d="M828.974 282.074L856.526 288.949L856.934 272.01L837.373 267.467L828.974 282.074Z" fill="#95A3E5" stroke="#B2C1FF" stroke-width="1.1619" stroke-linejoin="round"/>
<path d="M837.493 267.468L876.804 254.922L895.827 258.38L856.641 271.952L837.493 267.468Z" fill="#7285DC" stroke="#B2C1FF" stroke-width="1.1619" stroke-linejoin="round"/>
<path d="M866.637 265.415L861.99 267.072L861.6 266.835L862.41 264.958C862.525 264.677 862.573 264.465 862.555 264.322C862.538 264.177 862.446 264.053 862.28 263.952C862.057 263.816 861.762 263.745 861.395 263.738C861.028 263.73 860.658 263.793 860.284 263.927C859.836 264.086 859.564 264.258 859.469 264.441C859.375 264.622 859.465 264.796 859.739 264.963L858.838 265.284C858.444 265.045 858.336 264.776 858.512 264.479C858.691 264.181 859.133 263.906 859.838 263.655C860.497 263.42 861.123 263.298 861.716 263.289C862.306 263.278 862.775 263.379 863.121 263.59C863.542 263.846 863.599 264.31 863.29 264.981L862.633 266.415L866.194 265.145L866.637 265.415Z" fill="#B2C1FF"/>
<path d="M869.96 262.844L870.943 262.493L871.387 262.763L870.403 263.114L871.396 263.719L870.49 264.042L869.497 263.437L866.268 264.589L865.948 264.394L866.16 261.457L867.12 261.115L869.96 262.844ZM866.847 263.954L869.054 263.167L866.957 261.89L866.967 262L866.847 263.954Z" fill="#B2C1FF"/>
<path d="M873.241 261.141L872.917 261.781L874.362 262.661L873.427 262.994L869.151 260.39L870.086 260.057L872.2 261.345L873.237 258.933L874.367 258.53L873.465 260.675L878.862 261.056L877.742 261.455L873.241 261.141Z" fill="#B2C1FF"/>
<path fill-rule="evenodd" clip-rule="evenodd" d="M1059.58 147.641L1055.8 152.061L1062.01 152.11L1059.58 147.641Z" stroke="#597AFA" stroke-width="1.62202"/>
<ellipse cx="800.754" cy="226.8" rx="2.90476" ry="2.32381" stroke="#F8BF50" stroke-width="1.62202"/>
<path fill-rule="evenodd" clip-rule="evenodd" d="M913.449 75.3976L917.896 73.1931L919.813 77.0875L915.366 79.292L913.449 75.3976Z" stroke="#1EC7B6" stroke-width="1.62202"/>
<line x1="989.664" y1="269.218" x2="1041.24" y2="278.28" stroke="#B2C1FF" stroke-width="1.1619"/>
<path d="M999.486 264.522L999.983 260.831L1010.55 265.08C1010.61 265.106 1010.7 265.09 1010.74 265.143C1010.82 265.237 1010.52 265.714 1008.49 268.232C1008.4 268.343 1008.27 268.421 1008.13 268.442C1004.61 268.983 1002.62 268.438 999.621 264.977C999.514 264.852 999.464 264.685 999.486 264.522Z" fill="#7285DC" stroke="#B2C1FF" stroke-width="0.929524"/>
<path d="M1024.49 270.094C1023.95 268.763 1023.5 267.797 1022.82 266.569C1022.46 265.909 1022.78 265.077 1023.5 264.862L1033.77 261.812C1033.52 264.672 1033.32 266.366 1032.59 269.63C1032.52 269.935 1032.33 270.202 1032.06 270.357C1029.42 271.872 1027.57 271.869 1025.06 270.704C1024.79 270.583 1024.59 270.361 1024.49 270.094Z" fill="#95A3E5" stroke="#B2C1FF" stroke-width="0.929524"/>
<path d="M1037.61 258.229C1036.95 256.868 1036.41 255.905 1035.58 254.632C1035.21 254.066 1035.39 253.305 1035.97 252.968L1046.61 246.829C1046.55 249.574 1046.22 253.342 1045.73 256.738C1045.64 257.356 1045.3 257.915 1044.77 258.243C1042.45 259.68 1040.67 259.737 1038.22 258.799C1037.95 258.696 1037.73 258.488 1037.61 258.229Z" fill="#95A3E5" stroke="#B2C1FF" stroke-width="0.929524"/>
<path d="M1043.6 252.367L1043.59 252.384L1043.57 252.403C1042.95 253.123 1041.27 254.727 1039.17 256.533C1037.08 258.333 1034.61 260.308 1032.41 261.771C1028.4 264.446 1026.71 265.082 1024.9 265.761C1024.18 266.031 1023.44 266.309 1022.53 266.726L1022.49 266.745L1022.45 266.771C1020.05 268.505 1017.1 269.526 1013.9 269.526C1005.82 269.526 999.271 262.975 999.271 254.893C999.271 249.307 1001.82 244.549 1006.35 242.084L1006.4 242.056L1006.45 242.015L1006.82 241.663C1014.94 235.193 1016.85 233.77 1027.07 228.471L1027.13 228.553L1027.48 228.39C1029.34 227.53 1031.42 227.05 1033.61 227.05C1041.69 227.05 1048.24 233.601 1048.24 241.683C1048.24 245.898 1046.46 249.696 1043.6 252.367Z" fill="#7285DC" stroke="#B2C1FF" stroke-width="0.929524"/>
<path d="M1020.05 241.835L1020.23 241.924L1020.41 241.857C1022.1 241.253 1023.39 241.269 1024.17 241.826C1024.94 242.368 1025.43 243.571 1025.15 245.862L1025.13 246.047L1025.24 246.195C1027.05 248.629 1028.12 251.643 1028.12 254.908C1028.12 262.981 1021.58 269.526 1013.5 269.526C1005.43 269.526 998.886 262.981 998.886 254.908C998.886 251.062 1000.37 247.563 1002.8 244.953L1002.98 244.764L1002.91 244.515C1002.61 243.403 1002.55 242.516 1002.65 241.857C1002.75 241.201 1003 240.804 1003.31 240.593C1003.62 240.381 1004.07 240.299 1004.68 240.443C1005.3 240.588 1006.03 240.957 1006.86 241.596L1007.08 241.77L1007.34 241.65C1009.21 240.778 1011.3 240.291 1013.5 240.291C1015.86 240.291 1018.08 240.847 1020.05 241.835Z" fill="#95A3E5" stroke="#B2C1FF" stroke-width="0.929524"/>
<ellipse cx="1007.62" cy="248.306" rx="1.02924" ry="1.05637" fill="#B2C1FF"/>
<ellipse cx="1017.98" cy="248.928" rx="1.02924" ry="1.05637" fill="#B2C1FF"/>
<path fill-rule="evenodd" clip-rule="evenodd" d="M1018.94 257.63C1018.81 258.572 1018.26 259.391 1017.42 260.026C1017.19 260.407 1016.28 260.953 1015.27 261.56C1014.9 261.783 1014.52 262.016 1014.14 262.251C1014.33 262.039 1014.51 261.842 1014.67 261.656L1014.67 261.656C1014.85 261.461 1015.01 261.278 1015.16 261.101C1013.93 261.449 1012.48 261.551 1010.97 261.342C1006.92 260.783 1003.94 258.215 1004.3 255.607C1004.31 255.563 1004.31 255.52 1004.32 255.477C1004.09 255.61 1003.84 255.761 1003.6 255.924C1003.76 255.548 1004.44 254.48 1005.06 253.924C1005.06 253.92 1005.07 253.916 1005.07 253.913C1006.4 252.329 1009.2 251.47 1012.27 251.895C1016.31 252.453 1019.3 255.021 1018.94 257.63Z" fill="#D3D7EC"/>
<ellipse cx="1009.49" cy="258.522" rx="6.65483" ry="4.2819" transform="rotate(12.4626 1009.49 258.522)" fill="#B0BAEA"/>
<ellipse cx="1006.54" cy="258.181" rx="1.07464" ry="1.95107" fill="white"/>
<ellipse cx="1011.29" cy="258.911" rx="1.07464" ry="1.95107" fill="white"/>
<path d="M1030.14 230.394L1020.7 235.684C1020.53 235.777 1020.54 236.016 1020.71 236.097L1023.51 237.423C1023.58 237.457 1023.66 237.452 1023.73 237.41L1033.23 231.474C1033.4 231.365 1033.36 231.099 1033.16 231.051L1030.31 230.371C1030.25 230.357 1030.2 230.366 1030.14 230.394Z" fill="#E1E6FF" stroke="#B2C1FF" stroke-width="0.464762"/>
<path d="M1030.36 230.565L1030.38 233.255" stroke="#B2C1FF" stroke-width="0.464762"/>
<defs>
<filter id="filter0_f_0_1" x="-895" y="-484.989" width="1833" height="1340.99" filterUnits="userSpaceOnUse" color-interpolation-filters="sRGB">
<feFlood flood-opacity="0" result="BackgroundImageFix"/>
<feBlend mode="normal" in="SourceGraphic" in2="BackgroundImageFix" result="shape"/>
<feGaussianBlur stdDeviation="146" result="effect1_foregroundBlur_0_1"/>
</filter>
<linearGradient id="paint0_linear_0_1" x1="781.708" y1="189.966" x2="109.063" y2="861.689" gradientUnits="userSpaceOnUse">
<stop stop-color="#3F5BD9"/>
<stop offset="1" stop-color="#00198A"/>
</linearGradient>
<linearGradient id="paint1_linear_0_1" x1="241.462" y1="-155.27" x2="-657.626" y2="526.548" gradientUnits="userSpaceOnUse">
<stop stop-color="#3F5BD9"/>
<stop offset="1" stop-color="#00198A"/>
</linearGradient>
<linearGradient id="paint2_linear_0_1" x1="740.941" y1="-391.447" x2="602.175" y2="174.166" gradientUnits="userSpaceOnUse">
<stop stop-color="#012CE9"/>
<stop offset="1" stop-color="#0256C5" stop-opacity="0"/>
</linearGradient>
<linearGradient id="paint3_linear_0_1" x1="863.941" y1="-391.447" x2="725.175" y2="174.166" gradientUnits="userSpaceOnUse">
<stop stop-color="#012CE9"/>
<stop offset="1" stop-color="#0256C5" stop-opacity="0"/>
</linearGradient>
</defs>
</svg>
