<svg version="1.2" xmlns="http://www.w3.org/2000/svg" viewBox="0 0 24 24" width="24" height="24">
	<title>image</title>
	<style>
		.s0 { fill: #c2c6cc } 
	</style>
	<path id="Layer" class="s0" d="m0 19.5q0.6 0.1 1.2 0.1c2.2 0 4.3-0.7 6.1-2.1-1 0-2-0.4-2.9-1-0.8-0.6-1.4-1.4-1.7-2.4q1.1 0.2 2.2-0.1c-1.1-0.2-2.1-0.8-2.8-1.7-0.7-0.9-1.1-2-1.1-3.1v-0.1c0.6 0.4 1.4 0.6 2.2 0.6-1-0.7-1.8-1.7-2.1-3-0.2-1.2-0.1-2.5 0.6-3.6 1.2 1.6 2.8 2.8 4.5 3.7 1.7 0.9 3.7 1.4 5.6 1.5-0.2-1.1-0.1-2.2 0.3-3.2 0.5-0.9 1.2-1.8 2.2-2.3 1-0.5 2.1-0.7 3.1-0.5 1.1 0.2 2.1 0.7 2.8 1.5q1.7-0.3 3.1-1.2c-0.3 1.1-1.1 2.1-2.1 2.7q1.4-0.1 2.8-0.7-1 1.4-2.5 2.5 0.1 0.3 0.1 0.6c0 6.5-5 14.1-14 14.1-2.7 0-5.3-0.8-7.6-2.3z"/>
</svg>