<svg width="33" height="32" viewBox="0 0 33 32" fill="none" xmlns="http://www.w3.org/2000/svg">
<path d="M26.1934 4.86678L19.3934 11.6668H4.76675C3.88675 11.6668 3.16675 10.9468 3.16675 10.0668V10.0534C3.16675 7.00011 5.63341 4.53345 8.68675 4.53345H24.3001C24.9667 4.53345 25.6067 4.65345 26.1934 4.86678Z" fill="#3F5BD9"/>
<path d="M17.3934 13.6667L10.0601 21.0001H8.50008C7.95341 21.0001 7.50008 21.4534 7.50008 22.0001C7.50008 22.4134 7.76675 22.7867 8.14008 22.9201L5.00675 26.0534C3.87341 25.0534 3.16675 23.5867 3.16675 21.9467V15.2667C3.16675 14.3867 3.88675 13.6667 4.76675 13.6667H17.3934Z" fill="#3F5BD9"/>
<path d="M29.8333 14.6666V21.9466C29.8333 24.9999 27.3666 27.4666 24.3133 27.4666H12.2466C11.06 27.4666 10.46 26.0266 11.3 25.1866L13.1 23.3866C13.3533 23.1333 13.6866 22.9999 14.0466 22.9999H19.8333C20.38 22.9999 20.8333 22.5466 20.8333 21.9999C20.8333 21.4533 20.38 20.9999 19.8333 20.9999H18.7133C17.5266 20.9999 16.9266 19.5599 17.7666 18.7199L22.38 14.1066C22.8866 13.6133 23.5666 13.3333 24.2733 13.3333H28.5C29.2333 13.3333 29.8333 13.9333 29.8333 14.6666Z" fill="#3F5BD9"/>
<path d="M29.5267 2.97334C29.1267 2.57334 28.4733 2.57334 28.0733 2.97334L3.47334 27.5867C3.07334 27.9867 3.07334 28.64 3.47334 29.04C3.67334 29.2267 3.92667 29.3333 4.19334 29.3333C4.46001 29.3333 4.71334 29.2267 4.91334 29.0267L29.5267 4.41334C29.94 4.01334 29.94 3.37334 29.5267 2.97334Z" fill="#3F5BD9"/>
<path d="M29.5267 4.41333L27.98 5.96L22.2733 11.6667L4.91333 29.0267C4.71333 29.2267 4.46 29.3333 4.19333 29.3333C3.92666 29.3333 3.67333 29.2267 3.47333 29.0267C3.06 28.6267 3.06 27.9867 3.47333 27.5867L5.00666 26.0533L8.14 22.92L26.1933 4.86666L28.0867 2.97333C28.4867 2.56 29.1267 2.56 29.5267 2.97333C29.94 3.37333 29.94 4.01333 29.5267 4.41333Z" fill="#3F5BD9"/>
<path d="M29.8334 9.87994C29.8334 8.69328 28.3934 8.09328 27.5534 8.93328L27.1667 9.33328L26.7801 9.71994C25.9401 10.5599 26.5267 11.9999 27.7134 11.9999H28.5001C29.2334 11.9999 29.8334 11.3999 29.8334 10.6666V9.87994Z" fill="#3F5BD9"/>
</svg>
