<svg width="27" height="28" viewBox="0 0 27 28" fill="none" xmlns="http://www.w3.org/2000/svg">
<path d="M13.5001 0.666748C6.14008 0.666748 0.166748 6.64008 0.166748 14.0001C0.166748 21.3601 6.14008 27.3334 13.5001 27.3334C20.8601 27.3334 26.8334 21.3601 26.8334 14.0001C26.8334 6.64008 20.8601 0.666748 13.5001 0.666748ZM9.50008 8.66675C10.2334 8.66675 10.8334 9.26675 10.8334 10.0001C10.8334 10.7334 10.2467 11.3334 9.50008 11.3334C8.76675 11.3334 8.16675 10.7334 8.16675 10.0001C8.16675 9.26675 8.76675 8.66675 9.50008 8.66675ZM10.2067 18.7067C10.0067 18.9067 9.75341 19.0001 9.50008 19.0001C9.24675 19.0001 8.99341 18.9067 8.79341 18.7067C8.40675 18.3201 8.40675 17.6801 8.79341 17.2934L16.7934 9.29341C17.1801 8.90675 17.8201 8.90675 18.2067 9.29341C18.5934 9.68008 18.5934 10.3201 18.2067 10.7067L10.2067 18.7067ZM17.5001 19.3334C16.7534 19.3334 16.1534 18.7334 16.1534 18.0001C16.1534 17.2667 16.7534 16.6667 17.4867 16.6667C18.2201 16.6667 18.8201 17.2667 18.8201 18.0001C18.8201 18.7334 18.2334 19.3334 17.5001 19.3334Z" fill="#3F5BD9"/>
</svg>
