<svg width="33" height="32" viewBox="0 0 33 32" fill="none" xmlns="http://www.w3.org/2000/svg">
<path d="M16.5 20.0001C21.4706 20.0001 25.5 16.1199 25.5 11.3334C25.5 6.54695 21.4706 2.66675 16.5 2.66675C11.5294 2.66675 7.5 6.54695 7.5 11.3334C7.5 16.1199 11.5294 20.0001 16.5 20.0001Z" fill="#3F5BD9"/>
<path d="M21.5533 20.8133C21.9933 20.5866 22.5 20.9199 22.5 21.4133V27.8799C22.5 29.0799 21.66 29.6666 20.62 29.1733L17.0467 27.4799C16.74 27.3466 16.26 27.3466 15.9533 27.4799L12.38 29.1733C11.34 29.6533 10.5 29.0666 10.5 27.8666L10.5267 21.4133C10.5267 20.9199 11.0467 20.5999 11.4733 20.8133C12.98 21.5733 14.6867 21.9999 16.5 21.9999C18.3133 21.9999 20.0333 21.5733 21.5533 20.8133Z" fill="#3F5BD9"/>
</svg>
