<svg width="33" height="32" viewBox="0 0 33 32" fill="none" xmlns="http://www.w3.org/2000/svg">
<path d="M23.1667 3.23999H9.83341C5.83341 3.23999 3.16675 5.90666 3.16675 9.90666V17.9067C3.16675 21.9067 5.83341 24.5733 9.83341 24.5733V27.4133C9.83341 28.48 11.0201 29.12 11.9001 28.52L17.8334 24.5733H23.1667C27.1667 24.5733 29.8334 21.9067 29.8334 17.9067V9.90666C29.8334 5.90666 27.1667 3.23999 23.1667 3.23999ZM16.5001 19.4667C15.9401 19.4667 15.5001 19.0133 15.5001 18.4667C15.5001 17.92 15.9401 17.4667 16.5001 17.4667C17.0601 17.4667 17.5001 17.92 17.5001 18.4667C17.5001 19.0133 17.0601 19.4667 16.5001 19.4667ZM18.1801 13.9333C17.6601 14.28 17.5001 14.5067 17.5001 14.88V15.16C17.5001 15.7067 17.0467 16.16 16.5001 16.16C15.9534 16.16 15.5001 15.7067 15.5001 15.16V14.88C15.5001 13.3333 16.6334 12.5733 17.0601 12.28C17.5534 11.9467 17.7134 11.72 17.7134 11.3733C17.7134 10.7067 17.1667 10.16 16.5001 10.16C15.8334 10.16 15.2867 10.7067 15.2867 11.3733C15.2867 11.92 14.8334 12.3733 14.2867 12.3733C13.7401 12.3733 13.2867 11.92 13.2867 11.3733C13.2867 9.59999 14.7267 8.15999 16.5001 8.15999C18.2734 8.15999 19.7134 9.59999 19.7134 11.3733C19.7134 12.8933 18.5934 13.6533 18.1801 13.9333Z" fill="#3F5BD9"/>
</svg>
