<svg width="27" height="28" viewBox="0 0 27 28" fill="none" xmlns="http://www.w3.org/2000/svg">
<path d="M19.0867 0.666748H7.91341C3.06008 0.666748 0.166748 3.56008 0.166748 8.41341V19.5734C0.166748 24.4401 3.06008 27.3334 7.91341 27.3334H19.0734C23.9267 27.3334 26.8201 24.4401 26.8201 19.5867V8.41341C26.8334 3.56008 23.9401 0.666748 19.0867 0.666748ZM20.0067 13.3734C20.0067 13.8934 19.5934 14.3067 19.0734 14.3067C18.5534 14.3067 18.1401 13.8934 18.1401 13.3734V13.1334L14.5134 16.7601C14.3134 16.9601 14.0467 17.0534 13.7667 17.0267C13.4867 17.0001 13.2334 16.8534 13.0867 16.6134L11.7267 14.5867L8.55341 17.7601C8.36675 17.9467 8.14008 18.0267 7.90008 18.0267C7.66008 18.0267 7.42008 17.9334 7.24675 17.7601C6.88675 17.4001 6.88675 16.8134 7.24675 16.4401L11.2201 12.4667C11.4201 12.2667 11.6867 12.1734 11.9667 12.2001C12.2467 12.2267 12.5001 12.3734 12.6467 12.6134L14.0067 14.6401L16.8201 11.8267H16.5801C16.0601 11.8267 15.6467 11.4134 15.6467 10.8934C15.6467 10.3734 16.0601 9.96008 16.5801 9.96008H19.0601C19.1801 9.96008 19.3001 9.98675 19.4201 10.0267C19.6467 10.1201 19.8334 10.3067 19.9267 10.5334C19.9801 10.6534 19.9934 10.7734 19.9934 10.8934V13.3734H20.0067Z" fill="#3F5BD9"/>
</svg>
