<svg width="33" height="32" viewBox="0 0 33 32" fill="none" xmlns="http://www.w3.org/2000/svg">
<path d="M22.0865 2.66675H10.9132C6.05984 2.66675 3.1665 5.56008 3.1665 10.4134V21.5867C3.1665 25.3334 4.8865 27.9067 7.91317 28.8801C8.79317 29.1867 9.8065 29.3334 10.9132 29.3334H22.0865C23.1932 29.3334 24.2065 29.1867 25.0865 28.8801C28.1132 27.9067 29.8332 25.3334 29.8332 21.5867V10.4134C29.8332 5.56008 26.9398 2.66675 22.0865 2.66675ZM27.8332 21.5867C27.8332 24.4401 26.7132 26.2401 24.4598 26.9867C23.1665 24.4401 20.0998 22.6267 16.4998 22.6267C12.8998 22.6267 9.8465 24.4267 8.53984 26.9867H8.5265C6.29984 26.2667 5.1665 24.4534 5.1665 21.6001V10.4134C5.1665 6.65341 7.15317 4.66675 10.9132 4.66675H22.0865C25.8465 4.66675 27.8332 6.65341 27.8332 10.4134V21.5867Z" fill="#3F5BD9"/>
<path d="M16.4999 10.6667C13.8599 10.6667 11.7266 12.8001 11.7266 15.4401C11.7266 18.0801 13.8599 20.2267 16.4999 20.2267C19.1399 20.2267 21.2732 18.0801 21.2732 15.4401C21.2732 12.8001 19.1399 10.6667 16.4999 10.6667Z" fill="#3F5BD9"/>
</svg>
