<svg width="35" height="35" viewBox="0 0 35 35" fill="none" xmlns="http://www.w3.org/2000/svg">
<path d="M35 17.5C35 27.1651 27.1651 35 17.5 35C7.83489 35 0 27.1651 0 17.5C0 7.83489 7.83489 0 17.5 0C27.1651 0 35 7.83489 35 17.5Z" fill="#4A7AFF"/>
<path d="M22.8518 5.14609V9.1088C22.8518 9.1088 18.3022 8.44844 18.3022 11.3836V14.3188H22.4115L21.898 18.795H18.3022V30.4626H13.7526V18.795L9.86328 18.7216V14.3188H13.6791V10.9433C13.6791 10.9433 13.4273 5.92181 18.3756 4.99949C20.4304 4.61631 22.8518 5.14609 22.8518 5.14609Z" fill="white"/>
</svg>
