<svg width="30" height="31" viewBox="0 0 30 31" fill="none" xmlns="http://www.w3.org/2000/svg">
<path d="M1.95538 2.62026C-0.393532 5.05961 0.0872105 7.65088 0.0872105 15.523C0.0872105 22.0604 -1.05362 28.6139 4.91705 30.1567C6.78149 30.6361 23.3011 30.6361 25.163 30.1542C27.6489 29.5129 29.6715 27.4969 29.948 23.9817C29.9866 23.4911 29.9866 7.56372 29.9468 7.06315C29.6529 3.31882 27.3475 1.16089 24.3099 0.723821C23.6137 0.62296 23.4742 0.593075 19.9023 0.586849C7.23234 0.593075 4.45499 0.0289983 1.95538 2.62026Z" fill="url(#paint0_linear_1407_692)"/>
<path d="M14.9897 4.46087C10.4521 4.46087 6.14305 4.05754 4.49719 8.27821C3.81735 10.0214 3.91607 12.2854 3.91607 15.527C3.91607 18.3716 3.82484 21.0451 4.49719 22.7746C6.13931 26.9978 10.4833 26.5932 14.9872 26.5932C19.3325 26.5932 23.8127 27.0452 25.4786 22.7746C26.1596 21.0139 26.0597 18.7837 26.0597 15.527C26.0597 11.204 26.2984 8.41307 24.2001 6.31772C22.0756 4.1949 19.2025 4.46087 14.9847 4.46087H14.9897ZM13.9975 6.45508C23.4628 6.4401 24.6675 5.38868 24.0026 19.995C23.7664 25.1609 19.8299 24.594 14.991 24.594C6.16805 24.594 5.91436 24.3417 5.91436 15.522C5.91436 6.59993 6.61419 6.46008 13.9975 6.45258V6.45508ZM20.9009 8.29195C20.1673 8.29195 19.5724 8.88634 19.5724 9.61934C19.5724 10.3523 20.1673 10.9467 20.9009 10.9467C21.6344 10.9467 22.2293 10.3523 22.2293 9.61934C22.2293 8.88634 21.6344 8.29195 20.9009 8.29195ZM14.9897 9.84411C11.8492 9.84411 9.30357 12.389 9.30357 15.527C9.30357 18.6651 11.8492 21.2087 14.9897 21.2087C18.1303 21.2087 20.6747 18.6651 20.6747 15.527C20.6747 12.389 18.1303 9.84411 14.9897 9.84411ZM14.9897 11.8383C19.8699 11.8383 19.8761 19.2158 14.9897 19.2158C10.1109 19.2158 10.1034 11.8383 14.9897 11.8383Z" fill="white"/>
<defs>
<linearGradient id="paint0_linear_1407_692" x1="2.0127" y1="28.5629" x2="29.7883" y2="4.51875" gradientUnits="userSpaceOnUse">
<stop stop-color="#FFDD55"/>
<stop offset="0.5" stop-color="#FF543E"/>
<stop offset="1" stop-color="#C837AB"/>
</linearGradient>
</defs>
</svg>
