<svg width="182" height="114" viewBox="0 0 182 114" fill="none" xmlns="http://www.w3.org/2000/svg">
                                <path d="M59.0458 84C51.3286 84 45.225 81.879 40.735 77.637C36.245 73.3255 34 67.484 34 60.1127V32.5744C34 25.3421 36.245 19.605 40.735 15.363C45.225 11.121 51.3286 9 59.0458 9C66.763 9 72.8666 11.121 77.3566 15.363C81.9168 19.605 84.1968 25.3421 84.1968 32.5744V60.1127C84.1968 67.484 81.9168 73.3255 77.3566 77.637C72.8666 81.879 66.763 84 59.0458 84ZM59.0458 71.3783C62.2029 71.3783 64.6934 70.4395 66.5175 68.5619C68.4117 66.6147 69.3588 64.0417 69.3588 60.8428V32.1572C69.3588 28.9583 68.4117 26.42 66.5175 24.5424C64.6934 22.5953 62.2029 21.6217 59.0458 21.6217C55.9589 21.6217 53.4684 22.5953 51.5742 24.5424C49.7501 26.42 48.8381 28.9583 48.8381 32.1572V60.8428C48.8381 64.0417 49.7501 66.6147 51.5742 68.5619C53.4684 70.4395 55.9589 71.3783 59.0458 71.3783Z" fill="#3F5BD9"></path>
                                <path d="M181.994 22.9894L168.106 99.0643L73.151 96.6205L89.0247 6.59636L181.994 22.9894Z" fill="#F9FBFE"></path>
                                <line x1="88.5927" y1="4.3473" x2="71.8287" y2="99.4206" stroke="#2E51FF" stroke-width="4"></line>
                                <path d="M95.568 69.43C95.496 69.466 95.496 69.502 95.568 69.538C96.708 70.126 97.278 71.104 97.278 72.472C97.278 73.636 96.882 74.518 96.09 75.118C95.298 75.706 94.26 76 92.976 76H88.314C88.254 76 88.2 75.982 88.152 75.946C88.116 75.898 88.098 75.844 88.098 75.784V63.616C88.098 63.556 88.116 63.508 88.152 63.472C88.2 63.424 88.254 63.4 88.314 63.4H92.832C95.676 63.4 97.098 64.552 97.098 66.856C97.098 68.056 96.588 68.914 95.568 69.43ZM90.726 65.578C90.666 65.578 90.636 65.608 90.636 65.668V68.476C90.636 68.536 90.666 68.566 90.726 68.566H92.832C93.396 68.566 93.834 68.434 94.146 68.17C94.458 67.906 94.614 67.546 94.614 67.09C94.614 66.622 94.458 66.256 94.146 65.992C93.834 65.716 93.396 65.578 92.832 65.578H90.726ZM92.976 73.804C93.528 73.804 93.96 73.666 94.272 73.39C94.584 73.102 94.74 72.712 94.74 72.22C94.74 71.728 94.584 71.344 94.272 71.068C93.96 70.78 93.522 70.636 92.958 70.636H90.726C90.666 70.636 90.636 70.666 90.636 70.726V73.714C90.636 73.774 90.666 73.804 90.726 73.804H92.976ZM103.706 66.622C104.138 66.622 104.48 66.706 104.732 66.874C104.828 66.922 104.864 67.012 104.84 67.144L104.462 69.196C104.45 69.34 104.366 69.382 104.21 69.322C104.03 69.262 103.82 69.232 103.58 69.232C103.484 69.232 103.352 69.244 103.184 69.268C102.752 69.304 102.386 69.466 102.086 69.754C101.786 70.03 101.636 70.402 101.636 70.87V75.784C101.636 75.844 101.612 75.898 101.564 75.946C101.528 75.982 101.48 76 101.42 76H99.3141C99.2541 76 99.2001 75.982 99.1521 75.946C99.1161 75.898 99.0981 75.844 99.0981 75.784V66.964C99.0981 66.904 99.1161 66.856 99.1521 66.82C99.2001 66.772 99.2541 66.748 99.3141 66.748H101.42C101.48 66.748 101.528 66.772 101.564 66.82C101.612 66.856 101.636 66.904 101.636 66.964V67.648C101.636 67.684 101.648 67.708 101.672 67.72C101.696 67.732 101.714 67.726 101.726 67.702C102.218 66.982 102.878 66.622 103.706 66.622ZM109.846 76.144C108.838 76.144 107.974 75.88 107.254 75.352C106.534 74.824 106.042 74.104 105.778 73.192C105.61 72.628 105.526 72.016 105.526 71.356C105.526 70.648 105.61 70.012 105.778 69.448C106.054 68.56 106.552 67.864 107.272 67.36C107.992 66.856 108.856 66.604 109.864 66.604C110.848 66.604 111.688 66.856 112.384 67.36C113.08 67.852 113.572 68.542 113.86 69.43C114.052 70.03 114.148 70.66 114.148 71.32C114.148 71.968 114.064 72.574 113.896 73.138C113.632 74.074 113.14 74.812 112.42 75.352C111.712 75.88 110.854 76.144 109.846 76.144ZM109.846 73.966C110.242 73.966 110.578 73.846 110.854 73.606C111.13 73.366 111.328 73.036 111.448 72.616C111.544 72.232 111.592 71.812 111.592 71.356C111.592 70.852 111.544 70.426 111.448 70.078C111.316 69.67 111.112 69.352 110.836 69.124C110.56 68.896 110.224 68.782 109.828 68.782C109.42 68.782 109.078 68.896 108.802 69.124C108.538 69.352 108.346 69.67 108.226 70.078C108.13 70.366 108.082 70.792 108.082 71.356C108.082 71.896 108.124 72.316 108.208 72.616C108.328 73.036 108.526 73.366 108.802 73.606C109.09 73.846 109.438 73.966 109.846 73.966ZM115.996 76C115.936 76 115.882 75.982 115.834 75.946C115.798 75.898 115.78 75.844 115.78 75.784V63.616C115.78 63.556 115.798 63.508 115.834 63.472C115.882 63.424 115.936 63.4 115.996 63.4H118.102C118.162 63.4 118.21 63.424 118.246 63.472C118.294 63.508 118.318 63.556 118.318 63.616V69.682C118.318 69.718 118.33 69.742 118.354 69.754C118.378 69.754 118.402 69.742 118.426 69.718L120.874 66.874C120.958 66.79 121.048 66.748 121.144 66.748H123.538C123.658 66.748 123.718 66.79 123.718 66.874C123.718 66.91 123.7 66.958 123.664 67.018L121.378 69.916C121.354 69.964 121.348 70.006 121.36 70.042L124.042 75.748C124.066 75.796 124.078 75.832 124.078 75.856C124.078 75.952 124.012 76 123.88 76H121.666C121.546 76 121.462 75.946 121.414 75.838L119.632 71.626C119.62 71.602 119.596 71.59 119.56 71.59C119.536 71.578 119.518 71.584 119.506 71.608L118.354 73.048C118.33 73.096 118.318 73.132 118.318 73.156V75.784C118.318 75.844 118.294 75.898 118.246 75.946C118.21 75.982 118.162 76 118.102 76H115.996ZM132.741 70.42C132.813 70.876 132.837 71.386 132.813 71.95C132.801 72.094 132.723 72.166 132.579 72.166H127.017C126.945 72.166 126.921 72.196 126.945 72.256C126.981 72.496 127.047 72.736 127.143 72.976C127.455 73.648 128.091 73.984 129.051 73.984C129.819 73.972 130.425 73.66 130.869 73.048C130.917 72.976 130.971 72.94 131.031 72.94C131.067 72.94 131.109 72.964 131.157 73.012L132.453 74.29C132.513 74.35 132.543 74.404 132.543 74.452C132.543 74.476 132.519 74.524 132.471 74.596C132.075 75.088 131.565 75.472 130.941 75.748C130.317 76.012 129.633 76.144 128.889 76.144C127.857 76.144 126.981 75.91 126.261 75.442C125.553 74.974 125.043 74.32 124.731 73.48C124.479 72.88 124.353 72.094 124.353 71.122C124.353 70.462 124.443 69.88 124.623 69.376C124.899 68.524 125.379 67.846 126.063 67.342C126.759 66.838 127.581 66.586 128.529 66.586C129.729 66.586 130.689 66.934 131.409 67.63C132.141 68.326 132.585 69.256 132.741 70.42ZM128.547 68.782C127.791 68.782 127.293 69.136 127.053 69.844C127.005 70 126.963 70.192 126.927 70.42C126.927 70.48 126.957 70.51 127.017 70.51H130.131C130.203 70.51 130.227 70.48 130.203 70.42C130.143 70.072 130.113 69.904 130.113 69.916C130.005 69.556 129.813 69.28 129.537 69.088C129.273 68.884 128.943 68.782 128.547 68.782ZM138.985 66.622C139.417 66.622 139.759 66.706 140.011 66.874C140.107 66.922 140.143 67.012 140.119 67.144L139.741 69.196C139.729 69.34 139.645 69.382 139.489 69.322C139.309 69.262 139.099 69.232 138.859 69.232C138.763 69.232 138.631 69.244 138.463 69.268C138.031 69.304 137.665 69.466 137.365 69.754C137.065 70.03 136.915 70.402 136.915 70.87V75.784C136.915 75.844 136.891 75.898 136.843 75.946C136.807 75.982 136.759 76 136.699 76H134.593C134.533 76 134.479 75.982 134.431 75.946C134.395 75.898 134.377 75.844 134.377 75.784V66.964C134.377 66.904 134.395 66.856 134.431 66.82C134.479 66.772 134.533 66.748 134.593 66.748H136.699C136.759 66.748 136.807 66.772 136.843 66.82C136.891 66.856 136.915 66.904 136.915 66.964V67.648C136.915 67.684 136.927 67.708 136.951 67.72C136.975 67.732 136.993 67.726 137.005 67.702C137.497 66.982 138.157 66.622 138.985 66.622ZM144.853 66.604C145.633 66.604 146.329 66.742 146.941 67.018C147.553 67.282 148.027 67.648 148.363 68.116C148.711 68.584 148.885 69.106 148.885 69.682V75.784C148.885 75.844 148.861 75.898 148.813 75.946C148.777 75.982 148.729 76 148.669 76H146.563C146.503 76 146.449 75.982 146.401 75.946C146.365 75.898 146.347 75.844 146.347 75.784V75.19C146.347 75.154 146.335 75.13 146.311 75.118C146.287 75.106 146.263 75.118 146.239 75.154C145.735 75.814 144.925 76.144 143.809 76.144C142.873 76.144 142.117 75.916 141.541 75.46C140.965 75.004 140.677 74.332 140.677 73.444C140.677 72.52 141.001 71.806 141.649 71.302C142.297 70.786 143.221 70.528 144.421 70.528H146.257C146.317 70.528 146.347 70.498 146.347 70.438V70.042C146.347 69.646 146.227 69.34 145.987 69.124C145.747 68.896 145.387 68.782 144.907 68.782C144.535 68.782 144.223 68.848 143.971 68.98C143.731 69.112 143.575 69.298 143.503 69.538C143.467 69.67 143.389 69.73 143.269 69.718L141.091 69.43C140.947 69.406 140.881 69.352 140.893 69.268C140.941 68.764 141.139 68.308 141.487 67.9C141.847 67.492 142.315 67.174 142.891 66.946C143.479 66.718 144.133 66.604 144.853 66.604ZM144.493 74.254C145.009 74.254 145.447 74.116 145.807 73.84C146.167 73.564 146.347 73.21 146.347 72.778V72.13C146.347 72.07 146.317 72.04 146.257 72.04H144.961C144.421 72.04 143.995 72.142 143.683 72.346C143.383 72.55 143.233 72.838 143.233 73.21C143.233 73.534 143.347 73.792 143.575 73.984C143.803 74.164 144.109 74.254 144.493 74.254ZM156.324 66.964C156.324 66.904 156.342 66.856 156.378 66.82C156.426 66.772 156.48 66.748 156.54 66.748H158.646C158.706 66.748 158.754 66.772 158.79 66.82C158.838 66.856 158.862 66.904 158.862 66.964V75.172C158.862 76.744 158.406 77.866 157.494 78.538C156.594 79.21 155.43 79.546 154.002 79.546C153.582 79.546 153.114 79.516 152.598 79.456C152.478 79.444 152.418 79.366 152.418 79.222L152.49 77.368C152.49 77.212 152.574 77.146 152.742 77.17C153.174 77.242 153.57 77.278 153.93 77.278C154.698 77.278 155.286 77.11 155.694 76.774C156.114 76.438 156.324 75.898 156.324 75.154C156.324 75.118 156.312 75.1 156.288 75.1C156.264 75.088 156.24 75.094 156.216 75.118C155.76 75.61 155.094 75.856 154.218 75.856C153.438 75.856 152.718 75.67 152.058 75.298C151.41 74.914 150.948 74.302 150.672 73.462C150.492 72.91 150.402 72.196 150.402 71.32C150.402 70.384 150.51 69.622 150.726 69.034C150.978 68.302 151.404 67.714 152.004 67.27C152.604 66.826 153.3 66.604 154.092 66.604C155.016 66.604 155.724 66.88 156.216 67.432C156.24 67.456 156.264 67.468 156.288 67.468C156.312 67.456 156.324 67.432 156.324 67.396V66.964ZM156.18 72.778C156.276 72.418 156.324 71.926 156.324 71.302C156.324 70.93 156.312 70.642 156.288 70.438C156.264 70.234 156.222 70.042 156.162 69.862C156.054 69.538 155.874 69.28 155.622 69.088C155.37 68.884 155.058 68.782 154.686 68.782C154.326 68.782 154.02 68.884 153.768 69.088C153.516 69.28 153.33 69.538 153.21 69.862C153.042 70.222 152.958 70.708 152.958 71.32C152.958 71.992 153.03 72.472 153.174 72.76C153.282 73.084 153.468 73.348 153.732 73.552C154.008 73.744 154.332 73.84 154.704 73.84C155.088 73.84 155.406 73.744 155.658 73.552C155.91 73.348 156.084 73.09 156.18 72.778ZM168.864 70.42C168.936 70.876 168.96 71.386 168.936 71.95C168.924 72.094 168.846 72.166 168.702 72.166H163.14C163.068 72.166 163.044 72.196 163.068 72.256C163.104 72.496 163.17 72.736 163.266 72.976C163.578 73.648 164.214 73.984 165.174 73.984C165.942 73.972 166.548 73.66 166.992 73.048C167.04 72.976 167.094 72.94 167.154 72.94C167.19 72.94 167.232 72.964 167.28 73.012L168.576 74.29C168.636 74.35 168.666 74.404 168.666 74.452C168.666 74.476 168.642 74.524 168.594 74.596C168.198 75.088 167.688 75.472 167.064 75.748C166.44 76.012 165.756 76.144 165.012 76.144C163.98 76.144 163.104 75.91 162.384 75.442C161.676 74.974 161.166 74.32 160.854 73.48C160.602 72.88 160.476 72.094 160.476 71.122C160.476 70.462 160.566 69.88 160.746 69.376C161.022 68.524 161.502 67.846 162.186 67.342C162.882 66.838 163.704 66.586 164.652 66.586C165.852 66.586 166.812 66.934 167.532 67.63C168.264 68.326 168.708 69.256 168.864 70.42ZM164.67 68.782C163.914 68.782 163.416 69.136 163.176 69.844C163.128 70 163.086 70.192 163.05 70.42C163.05 70.48 163.08 70.51 163.14 70.51H166.254C166.326 70.51 166.35 70.48 166.326 70.42C166.266 70.072 166.236 69.904 166.236 69.916C166.128 69.556 165.936 69.28 165.66 69.088C165.396 68.884 165.066 68.782 164.67 68.782Z" fill="#252525"></path>
                                <path fill-rule="evenodd" clip-rule="evenodd" d="M25.2173 0.254214L25.3769 0L18.4885 0.168504H3.33781L2.74977 0.973577L1.86169 1.86166L0.930843 2.7925L0 3.72335H6.82618C7.6536 3.72335 9.4946 3.84746 10.2393 4.34391C10.9839 4.84036 11.377 5.37818 11.4804 5.58503H3.41324C3.30976 5.58503 2.9787 5.70914 2.48225 6.20559C1.9858 6.70204 1.03427 8.48099 0.620562 9.3084H11.7907H12.101C12.101 9.72211 11.9768 10.6736 11.4804 11.1701C10.8598 11.7907 9.92899 12.7215 8.06731 13.0318C6.57796 13.28 3.51652 13.3421 2.17197 13.3421V16.7551C2.17197 16.8586 2.29608 17.1895 2.79253 17.686C3.12535 18.0188 6.45179 21.6242 9.57445 25.1177L13.3007 29.5768C13.3393 29.6213 13.3697 29.6796 13.402 29.7414L13.4103 29.7573C13.4159 29.7684 13.4212 29.7796 13.4264 29.7906C13.4395 29.818 13.4523 29.8449 13.4684 29.8702L13.5135 29.9508L16.333 29.8873L21.742 30L21.5163 29.7284C20.6867 28.7305 19.8471 27.6824 19.0057 26.6321L18.948 26.56C18.0877 25.4862 17.2258 24.4112 16.3734 23.3894C15.1683 21.9425 13.9595 20.4988 12.7508 19.0552L12.7504 19.0547L12.7495 19.0537C11.9441 18.0918 11.1388 17.13 10.3347 16.1674C10.3002 16.1255 10.2689 16.0842 10.2372 16.041C12.5164 15.7405 14.5627 15.2332 16.2 14.1972C17.7773 13.1992 18.9643 11.7175 19.6217 9.48792L19.9002 9.02834C20.2732 9.01119 20.6657 8.96427 21.0548 8.91774L21.0548 8.91774L21.1679 8.90425C21.698 8.84122 22.2202 8.78403 22.7027 8.7997C22.9277 8.80673 23.1198 8.77376 23.2889 8.68374C23.4577 8.59388 23.5881 8.45538 23.7036 8.27859L23.7041 8.27778C24.0487 7.74349 24.4143 7.22196 24.8024 6.66827L24.8024 6.6682C24.9532 6.45317 25.1073 6.23329 25.2649 6.00594L25.4426 5.74951L21.8637 5.78831L24.0685 2.15007C24.1595 2.02272 24.2437 1.88349 24.3216 1.73236L25.2173 0.254214ZM22.9879 3.00257L25.2173 0.254214C25.1236 0.403622 25.0274 0.546243 24.9329 0.686304C24.7359 0.978539 24.5463 1.25963 24.4016 1.56796C24.3757 1.62424 24.3491 1.67904 24.3216 1.73236L24.0685 2.15007C23.8322 2.4806 23.5504 2.73105 23.2163 2.90156C23.1423 2.93933 23.0662 2.97296 22.9879 3.00257ZM20.718 5.80074L21.8637 5.78831L21.7855 5.91732H20.6234L20.718 5.80074ZM19.5777 5.91732C19.4616 5.64976 19.397 5.40146 19.3563 5.16605H16.8001L17.1633 5.91732H19.5777ZM16.6441 4.84363H19.3123C19.3034 4.76099 19.296 4.67968 19.2887 4.5994L19.288 4.59108V4.59106C19.266 4.34826 19.245 4.11574 19.1908 3.87638H16.1764L16.6441 4.84363ZM16.0205 3.55396H19.0968C19.0701 3.48033 19.0392 3.40545 19.0031 3.32885C18.8847 3.32294 18.7626 3.31198 18.6368 3.29601C17.9468 3.20896 17.231 3.23153 16.5411 3.2541L16.5217 3.25466L16.5216 3.25466C16.3058 3.26092 16.0931 3.26709 15.8833 3.27022L16.0205 3.55396ZM20.8725 2.78991C21.0367 2.7812 21.2196 2.78652 21.4321 2.81368C22.1037 2.89979 22.6397 2.83385 23.0698 2.61437C23.3329 2.4801 23.5638 2.28456 23.7649 2.01869C23.4388 2.07564 23.0045 2.13961 22.59 2.19054C22.2714 2.22968 21.9602 2.26167 21.7139 2.27707C21.591 2.28475 21.4814 2.28849 21.3939 2.28653C21.3728 2.28606 21.3523 2.28525 21.3327 2.284C21.1949 2.48071 21.0418 2.64917 20.8725 2.78991ZM21.5308 1.96314C21.5797 1.96163 21.6343 1.95899 21.6937 1.95527C21.931 1.94045 22.2351 1.9093 22.5506 1.87053C23.1176 1.80087 23.7076 1.70833 24.003 1.64531C24.0395 1.57766 24.0749 1.50682 24.1089 1.43273L24.1094 1.43166C24.1806 1.27991 24.2639 1.13122 24.353 0.98546C24.028 1.00707 23.5086 1.06469 23.0486 1.19229C22.7108 1.28603 22.4371 1.30728 22.2286 1.29282C22.1076 1.28442 22.0042 1.26362 21.922 1.23543C21.8203 1.39686 21.7252 1.56104 21.6482 1.72903C21.6107 1.81023 21.5715 1.88825 21.5308 1.96314ZM22.107 0.952038C22.1462 0.960197 22.194 0.967222 22.2509 0.97117C22.4186 0.982799 22.6554 0.966778 22.9624 0.881606C23.5822 0.709659 24.2933 0.658654 24.5668 0.652713C24.6054 0.594665 24.6442 0.537093 24.6827 0.479986C24.715 0.43205 24.747 0.384442 24.7786 0.337156L22.4753 0.3935L22.4608 0.41677C22.3737 0.555412 22.2802 0.694054 22.1867 0.832696L22.1452 0.894866C22.1325 0.913893 22.1197 0.93295 22.107 0.952038ZM20.718 5.80074L22.9879 3.00257C22.5301 3.17563 21.9987 3.21139 21.3911 3.13349C20.914 3.07253 20.611 3.13258 20.3007 3.21055C20.2664 3.21915 20.2319 3.22802 20.197 3.23701C19.963 3.29724 19.7096 3.36247 19.3776 3.38476C19.541 3.80722 19.5752 4.18632 19.6079 4.54939V4.54941L19.6098 4.5704C19.6463 4.97434 19.6841 5.36195 19.8826 5.8098L20.718 5.80074ZM20.3618 6.23974H16.9538L15.361 2.95102H15.6189C15.9124 2.95102 16.2122 2.94155 16.5151 2.93198L16.5151 2.93198L16.5249 2.93167C17.2278 2.9091 17.9565 2.88653 18.6723 2.97681C20.0071 3.14447 20.8293 2.71887 21.3484 1.59362C21.4963 1.27617 21.6943 0.979349 21.8861 0.691884L21.8862 0.69184L21.9126 0.652139C21.9304 0.624733 21.9481 0.598133 21.9658 0.571533C21.9836 0.544933 22.0013 0.518334 22.019 0.490928H3.50869L2.39769 2.13798L1.94779 2.9478H2.21255C2.78002 2.96069 3.34748 2.97036 3.91495 2.98004L3.94832 2.98053C5.25344 2.99972 6.60232 3.01955 7.92267 3.11546C9.23433 3.21057 10.2941 3.55606 11.128 4.16441C11.9471 4.71984 12.4424 5.51997 12.6552 6.0299L12.7622 6.21072H9.87978C8.05773 6.21072 6.2329 6.21072 4.40787 6.20559H3.88606C3.58424 6.21694 3.42946 6.30322 3.283 6.53637C2.93955 7.07561 2.57054 7.59888 2.17915 8.15389L2.17914 8.15389L2.17386 8.16138C2.11183 8.24785 2.0498 8.33651 1.98713 8.42608L1.98706 8.42618L1.93243 8.5042C1.9168 8.54379 1.90187 8.5822 1.88769 8.61922H12.9557L12.9622 8.77399C12.9944 9.80574 12.6591 10.7343 11.9368 11.6145C10.8632 12.9204 9.33489 13.6877 7.39712 13.8973C6.43952 14.0005 5.45936 14.0166 4.51143 14.0295C4.0955 14.0359 3.6828 14.0424 3.2701 14.0553C3.18084 14.0574 3.09019 14.0567 2.99536 14.056H2.9953H2.9952C2.94621 14.0557 2.8961 14.0553 2.8445 14.0553H2.76067V14.5808L2.76061 14.5926V14.5926C2.75841 15.0128 2.75629 15.4165 2.7635 15.8172C2.7816 15.9647 2.79253 16.0775 2.79253 16.1346V16.422C2.82828 16.5247 2.93256 16.6479 3.02074 16.7521L3.02506 16.7572L3.07342 16.812C5.08212 19.2173 7.09082 21.6226 9.09952 24.0246L12.8988 28.5712L13.7207 29.5104L18.2234 29.6042L16.9118 28.0227L16.9109 28.0215C15.7311 26.6 14.5514 25.1785 13.3684 23.7602C12.7476 23.0169 12.1261 22.2736 11.5045 21.5303C10.8831 20.7873 10.2618 20.0442 9.64119 19.3011L7.32941 16.5379C7.26493 16.4606 7.20689 16.3832 7.14563 16.2961L6.89092 15.9544L7.16498 15.9189C12.8396 15.216 15.8253 13.0042 16.8474 8.75464L16.8764 8.63212H17.0021C17.273 8.63212 17.5502 8.63212 17.8275 8.6289L18.0295 8.6279C18.161 8.62723 18.2932 8.62656 18.426 8.6261L20.3618 6.23974ZM18.1644 8.94863C18.0559 8.94939 17.9479 8.95032 17.8404 8.95132C17.6051 8.95132 17.3729 8.95132 17.1408 8.95455C17.1192 9.04012 17.0968 9.12468 17.0737 9.20823L17.9113 9.26057L17.6619 9.56804L16.9809 9.52548C16.9288 9.69416 16.8734 9.85855 16.815 10.0188L17.2291 10.1016L16.9996 10.3845L16.6979 10.3241C16.5886 10.5954 16.4702 10.8541 16.3432 11.1008C16.3649 11.1018 16.3872 11.103 16.41 11.1046L16.4152 11.1049L16.1959 11.3752C16.1911 11.3838 16.1863 11.3923 16.1815 11.4008L16.1869 11.4061C16.1812 11.4117 16.1758 11.4161 16.1709 11.4194C16.1697 11.4216 16.1684 11.4238 16.1672 11.4261C16.1739 11.425 16.1829 11.424 16.1947 11.4231C16.2396 11.4198 16.3045 11.4207 16.3886 11.4263C16.5555 11.4374 16.7778 11.4658 17.0235 11.5038C17.4348 11.5675 17.9015 11.6567 18.2623 11.7312L16.1648 11.4302C16.0495 11.6325 15.9281 11.8263 15.8013 12.0119L17.493 12.7167C17.7712 12.4182 18.0282 12.0908 18.2623 11.7312L18.4395 11.4388L18.4429 11.4395C18.4681 11.3967 18.4931 11.3534 18.5177 11.3097L19.6217 9.48792C19.6654 9.33983 19.7067 9.18845 19.7456 9.03369C19.7967 9.03254 19.8483 9.03073 19.9002 9.02834L19.9393 8.96391C19.771 8.95858 19.6023 8.95472 19.4337 8.95201C19.3998 9.08705 19.364 9.21937 19.3264 9.34902L17.9113 9.26057L18.1644 8.94863ZM20.8134 8.62171C20.8823 8.61362 20.9517 8.60533 21.0215 8.597L21.1298 8.58408C21.6573 8.52137 22.2025 8.46087 22.713 8.47744C22.9006 8.48329 23.0325 8.455 23.1374 8.39914C23.2426 8.34315 23.3363 8.25123 23.4334 8.10261C23.5105 7.98318 23.5886 7.86426 23.6678 7.74547H21.4133C21.2544 7.97798 21.0996 8.20897 20.9486 8.44189C20.9051 8.50884 20.8602 8.56865 20.8134 8.62171ZM21.6355 7.42305H23.8854C23.9949 7.2626 24.1062 7.1017 24.2193 6.93937H21.9734C21.8588 7.10274 21.7461 7.26361 21.6355 7.42305ZM22.1988 6.61694C22.3009 6.47018 22.4044 6.3208 22.5091 6.16881L22.5545 6.10327L24.8215 6.07868C24.7277 6.21302 24.6349 6.34539 24.5432 6.47629L24.5424 6.47736L24.5418 6.47821L24.5418 6.47834L24.4446 6.61694H22.1988ZM18.5177 11.3097L18.4395 11.4388C18.0637 11.3596 17.5351 11.2568 17.0729 11.1852C16.8265 11.147 16.5954 11.1172 16.4152 11.1049L16.9996 10.3845L18.807 10.746C18.7158 10.9415 18.6194 11.1293 18.5177 11.3097ZM15.6091 12.2811C15.4133 12.5438 15.206 12.789 14.9884 13.0179L16.5736 13.5462C16.81 13.3668 17.0357 13.1734 17.2501 12.9649L15.6091 12.2811ZM14.7347 13.2731C14.5632 13.4381 14.3862 13.5939 14.2042 13.7412L15.2872 14.3428C15.543 14.2141 15.79 14.0751 16.0276 13.9247C16.1028 13.8771 16.1771 13.8284 16.2505 13.7784L14.7347 13.2731ZM13.927 13.956C13.6756 14.1429 13.4158 14.3146 13.1491 14.4727L13.5866 15.0196C14.0557 14.8736 14.5042 14.7063 14.9301 14.5133L13.927 13.956ZM12.8656 14.6344C12.5357 14.8152 12.1965 14.9765 11.851 15.1208L12.0671 15.4089C12.4746 15.3238 12.8703 15.2278 13.2532 15.1189L12.8656 14.6344ZM11.5412 15.245C11.0032 15.4521 10.4521 15.6204 9.89815 15.7592L9.92642 15.7557C10.5435 15.6792 11.1412 15.5889 11.7166 15.479L11.5412 15.245ZM9.66912 15.8149C8.93629 15.9877 8.20106 16.111 7.4874 16.2059C7.51964 16.2478 7.55188 16.2897 7.58735 16.3316L8.10469 16.95L9.86112 16.0717C9.84654 16.0518 9.83193 16.0319 9.81728 16.0124L9.66912 15.8149ZM8.31734 17.2041L9.0561 18.0871L10.6099 16.9995L10.0869 16.3737L10.0862 16.3728C10.0759 16.3604 10.0658 16.3478 10.0557 16.335L8.31734 17.2041ZM9.26376 18.3353L9.89913 19.0948C9.93573 19.1385 9.97234 19.1822 10.0089 19.2259L11.4848 18.0453L10.8175 17.2477L9.26376 18.3353ZM10.216 19.4732C10.4162 19.7124 10.6165 19.9516 10.8167 20.1907L12.2925 19.0101L11.6918 18.2926L10.216 19.4732ZM11.0237 20.4381C11.2511 20.7097 11.4783 20.9814 11.7055 21.253L13.1817 20.0721L12.5037 19.2624L12.5017 19.2599L12.4995 19.2574L11.0237 20.4381ZM11.9124 21.5004C12.1612 21.798 12.4098 22.0956 12.6583 22.3931L14.1352 21.2116L13.3887 20.3194L11.9124 21.5004ZM12.8649 22.6407C13.119 22.9451 13.3728 23.2495 13.6263 23.5539C13.6455 23.5768 13.6646 23.5998 13.6838 23.6228L15.0916 22.3558C14.8418 22.0567 14.592 21.7578 14.3421 21.459L12.8649 22.6407ZM13.8904 23.8706C14.157 24.1905 14.4235 24.5105 14.6899 24.8307C14.7681 24.8244 14.8807 24.8082 14.9909 24.7759C15.0651 24.7542 15.1322 24.7269 15.1852 24.6945C15.2387 24.6617 15.2687 24.6292 15.2829 24.6006C15.3587 24.4492 15.5488 24.2183 15.7378 24.0054C15.8675 23.8595 16.0048 23.7132 16.1222 23.5915C15.8477 23.262 15.5731 22.9327 15.2983 22.6035L13.8904 23.8706ZM14.932 25.1218C15.2045 25.4495 15.477 25.7774 15.7494 26.1053C15.7546 26.1028 15.76 26.1002 15.7654 26.0975L15.7658 26.0973L15.7658 26.0973C15.8805 26.0415 16.0347 25.9665 16.1844 25.8794C16.2803 25.8237 16.3694 25.7658 16.4406 25.7087C16.5147 25.6493 16.5561 25.601 16.5726 25.5679C16.6558 25.4016 16.8319 25.248 16.9927 25.1309C17.0786 25.0682 17.1672 25.011 17.2486 24.9625C16.9414 24.5839 16.6349 24.2092 16.3296 23.8409C16.2205 23.9545 16.0963 24.0874 15.9789 24.2196C15.7838 24.4393 15.6246 24.6383 15.5713 24.7448C15.5211 24.8452 15.4383 24.9175 15.3537 24.9693C15.2686 25.0215 15.1726 25.0587 15.0815 25.0854C15.0313 25.1001 14.9808 25.1121 14.932 25.1218ZM15.9615 26.3607C16.3166 26.7884 16.6717 27.2162 17.0268 27.644C17.0524 27.6174 17.081 27.5891 17.1117 27.5598C17.2285 27.448 17.3876 27.3085 17.5592 27.1618C17.6986 27.0426 17.846 26.9188 17.9881 26.7996L17.9883 26.7994L17.989 26.7988C18.1484 26.665 18.3011 26.5368 18.4282 26.427C18.103 26.0213 17.7781 25.6167 17.4538 25.2158C17.3701 25.2642 17.2743 25.3246 17.1826 25.3914C17.0262 25.5054 16.9068 25.6204 16.861 25.7121C16.8131 25.8079 16.7282 25.8913 16.6424 25.9602C16.5537 26.0313 16.4494 26.0984 16.3464 26.1582C16.2117 26.2365 16.0709 26.3071 15.9615 26.3607ZM17.2336 27.8946C17.259 27.8669 17.2928 27.8328 17.3346 27.7928C17.4445 27.6876 17.5977 27.5531 17.7687 27.4069C17.9023 27.2927 18.047 27.1712 18.1882 27.0526L18.1885 27.0524L18.1888 27.0521C18.3473 26.919 18.5013 26.7897 18.63 26.6788L18.6963 26.7616L18.7549 26.8348L18.7551 26.835L18.7574 26.8378C19.023 27.1694 19.2887 27.5011 19.5541 27.8312L17.8792 28.6857L17.2336 27.8946ZM18.1229 28.9844L18.6357 29.6128L21.0433 29.6629C20.6182 29.1482 20.1908 28.6217 19.7625 28.0901L18.1229 28.9844ZM17.2291 10.1016L18.9409 10.4439C19.0451 10.1965 19.1414 9.93737 19.2292 9.666L17.6619 9.56804L17.2291 10.1016ZM20.1391 8.63406L21.5901 6.23974H22.0609C22.021 6.29658 21.982 6.35251 21.9434 6.40787L21.9428 6.40881C21.8787 6.50073 21.8157 6.5911 21.7514 6.68146C21.371 7.22313 21.0098 7.73901 20.6681 8.26778C20.5186 8.4971 20.3692 8.60493 20.1391 8.63406Z" fill="#2E51FF"></path>
                                </svg>