<svg width="18" height="16" viewBox="0 0 18 16" fill="none" xmlns="http://www.w3.org/2000/svg">
<path d="M15.2503 0.96875H2.39907C1.26188 0.970816 0.326698 1.94183 0.324708 3.12261V15.5932C0.324347 15.7321 0.398315 15.8602 0.51641 15.9256C0.569038 15.9535 0.627272 15.9684 0.68641 15.9688C0.758389 15.9682 0.82874 15.946 0.888964 15.9049L5.31439 12.799H15.2503C16.3875 12.7969 17.3227 11.8259 17.3247 10.6451V3.12261C17.3227 1.94183 16.3875 0.970816 15.2503 0.96875ZM16.6013 10.6451C16.6004 11.4143 15.9911 12.0469 15.2503 12.0479H5.20769C5.13553 12.0477 5.06499 12.07 5.00513 12.1117L1.04811 14.8853V3.12261C1.04902 2.35345 1.6583 1.72082 2.39907 1.71988H15.2503C15.9911 1.72082 16.6004 2.35345 16.6013 3.12261V10.6451Z" fill="white"/>
</svg>
