<svg width="19" height="20" viewBox="0 0 19 20" fill="none" xmlns="http://www.w3.org/2000/svg">
<path d="M5.08048 9.81837C5.66683 10.6302 6.34346 11.4422 7.11041 12.2091C7.87709 12.9758 8.66655 13.6525 9.47882 14.2392C9.8708 14.5273 10.3436 14.6544 10.7685 14.6283C11.1928 14.6024 11.576 14.4229 11.7783 14.0901C11.7783 14.09 11.7784 14.0898 11.7785 14.0897L12.6493 12.7054C12.6623 12.6982 12.6829 12.6892 12.7112 12.6794C12.7456 12.6675 12.7888 12.6553 12.8379 12.6444C12.9347 12.6229 13.0526 12.6068 13.1703 12.6063C14.9615 13.0095 16.0144 13.3455 17.3113 13.9264C17.3293 13.943 17.3517 13.9764 17.3749 14.0259C17.3991 14.0775 17.4214 14.1408 17.4391 14.2062C17.4568 14.2716 17.4695 14.3377 17.4752 14.3949C17.4809 14.4531 17.4787 14.4958 17.4712 14.5193C17.0236 15.6602 16.375 16.6663 15.5254 17.5159C15.328 17.7133 15.1088 17.911 14.8679 18.1088H14.7733C11.5035 18.1088 8.09571 16.5855 5.44862 13.9384L5.38112 13.8709L5.38097 13.8707C2.67128 11.1834 1.14883 7.76081 1.18804 4.4519C1.38572 4.21109 1.58393 3.99086 1.80446 3.74826C2.65202 2.90095 3.65535 2.25358 4.79273 1.80625H4.79281H4.79292H4.79303H4.79314H4.79325H4.79337H4.79348H4.7936H4.79371H4.79383H4.79394H4.79406H4.79418H4.7943H4.79442H4.79454H4.79466H4.79478H4.79491H4.79503H4.79515H4.79528H4.79541H4.79553H4.79566H4.79579H4.79592H4.79604H4.79617H4.7963H4.79644H4.79657H4.7967H4.79683H4.79697H4.7971H4.79724H4.79738H4.79751H4.79765H4.79779H4.79793H4.79807H4.79821H4.79835H4.7985H4.79864H4.79878H4.79893H4.79907H4.79922H4.79937H4.79951H4.79966H4.79981H4.79996H4.80011H4.80026H4.80042H4.80057H4.80072H4.80088H4.80103H4.80119H4.80134H4.8015H4.80166H4.80182H4.80198H4.80214H4.8023H4.80246H4.80263H4.80279H4.80295H4.80312H4.80329H4.80345H4.80362H4.80379H4.80396H4.80413H4.8043H4.80447H4.80464H4.80481H4.80499H4.80516H4.80534H4.80551H4.80569H4.80587H4.80605H4.80623H4.80641H4.80659H4.80677H4.80695H4.80713H4.80732H4.8075H4.80769H4.80787H4.80806H4.80825H4.80844H4.80863H4.80882H4.80901H4.8092H4.80939H4.80959H4.80978H4.80998H4.81017H4.81037H4.81057H4.81077H4.81097H4.81117H4.81137H4.81157H4.81177H4.81198H4.81218H4.81239H4.81259H4.8128H4.81301H4.81321H4.81342H4.81363H4.81384H4.81406H4.81427H4.81448H4.8147H4.81491H4.81513H4.81534H4.81556H4.81578H4.816H4.81622H4.81644H4.81666H4.81688H4.81711H4.81733H4.81756H4.81778H4.81801H4.81824H4.81847H4.8187H4.81893H4.81916H4.81939H4.81962H4.81986H4.82009H4.82032H4.82056H4.8208H4.82104H4.82128H4.82151H4.82176H4.822H4.82224H4.82248H4.82273H4.82297H4.82322H4.82346H4.82371H4.82396H4.82421H4.82446H4.82471H4.82496H4.82521H4.82547H4.82572H4.82598H4.82623H4.82649H4.82675H4.82701H4.82727H4.82753H4.82779H4.82805H4.82832H4.82858H4.82885H4.82911H4.82938H4.82965H4.82992H4.83019H4.83046H4.83073H4.831H4.83127H4.83155H4.83182H4.8321H4.83238H4.83265H4.83293H4.83321H4.83349H4.83377H4.83406H4.83434H4.83462H4.83491H4.83519H4.83548H4.83577H4.83606H4.83635H4.83664H4.83693H4.83722H4.83752H4.83781H4.8381H4.8384H4.8387H4.839H4.83929H4.83959H4.8399H4.8402H4.8405H4.8408H4.84111H4.84141H4.84172H4.84203H4.84234H4.84265H4.84296H4.84327H4.84358H4.84389H4.84421H4.84452H4.84484H4.84515H4.84547H4.84579H4.84611H4.84643H4.84675H4.84707H4.8474H4.84772H4.84805H4.84837H4.8487H4.84903H4.84936H4.84969H4.85002H4.85035H4.85068H4.85102H4.85135H4.85169H4.85203H4.85237H4.8527H4.85304H4.85338H4.85373H4.85407H4.85441H4.85476H4.8551H4.85545H4.8558H4.85615H4.8565H4.85685H4.8572H4.85755H4.8579H4.85826H4.85862H4.85897H4.85933H4.85969H4.86005H4.86041H4.86077H4.86113H4.8615H4.86186H4.86223H4.86259H4.86296H4.86333H4.8637H4.86407H4.86444H4.86481H4.86519H4.86556H4.86594H4.86631H4.86669H4.86707H4.86745H4.86783H4.86821H4.86859H4.86898H4.86936H4.86975H4.87014H4.87052H4.87091H4.8713H4.87169H4.87208H4.87248H4.87287H4.87327C4.96834 1.80625 5.08174 1.82757 5.17863 1.85249C5.25658 1.87253 5.31974 1.89381 5.35103 1.90606C5.77757 3.09597 6.33482 4.65873 6.71447 6.13227C6.71846 6.15349 6.71891 6.18943 6.71551 6.23646C6.71213 6.28311 6.70531 6.33646 6.697 6.38908C6.68258 6.4804 6.66434 6.56539 6.65322 6.60638L5.22927 7.49635L5.22926 7.49633L5.22803 7.49715C4.94658 7.68478 4.75924 7.96644 4.68924 8.31644L4.68915 8.31689C4.59621 8.80483 4.73589 9.35871 5.08048 9.81837ZM5.08048 9.81837C5.0804 9.81825 5.08031 9.81814 5.08023 9.81802L5.12077 9.78875L5.08077 9.81875C5.08067 9.81862 5.08058 9.8185 5.08048 9.81837ZM0.289223 4.11002L0.278266 4.12371V4.14125V4.27562C0.18807 7.8689 1.81514 11.5938 4.79291 14.5716C7.61337 17.3921 11.2481 19.0187 14.7733 19.0187H15.1558H15.1808L15.1958 18.9987L15.2592 18.9142C15.5511 18.6894 15.8434 18.4418 16.1136 18.1716C17.0634 17.2218 17.7873 16.1134 18.2624 14.8693C18.3695 14.5953 18.3382 14.2167 18.2295 13.8851C18.1749 13.7182 18.0998 13.5604 18.0101 13.4306C17.9208 13.3014 17.8148 13.1968 17.6972 13.1411L17.6967 13.1408C16.276 12.4869 15.1703 12.1259 13.324 11.7205C13.2496 11.6962 13.1757 11.6962 13.0904 11.6962H13.0858C12.9577 11.6962 12.7168 11.7193 12.4784 11.7882C12.2425 11.8564 11.9963 11.9732 11.8735 12.1695C11.8735 12.1696 11.8734 12.1697 11.8734 12.1698L10.9512 13.6093L10.9511 13.6093L10.9504 13.6105C10.9246 13.6535 10.8773 13.6883 10.8092 13.7108C10.7412 13.7332 10.6559 13.7421 10.5608 13.7354C10.3706 13.722 10.1494 13.6466 9.96614 13.5065L9.96539 13.506C9.2025 12.945 8.43931 12.2941 7.69836 11.5756C6.95796 10.8352 6.30752 10.0726 5.74692 9.28784C5.57208 9.02528 5.48846 8.7245 5.52967 8.4943C5.55019 8.41325 5.58981 8.33577 5.66663 8.27749L7.10406 7.37909C7.33647 7.24407 7.46399 6.95036 7.52647 6.66637C7.58942 6.38025 7.59038 6.08553 7.55449 5.93001L7.55452 5.93L7.55405 5.92828C7.14866 4.41931 6.60833 2.8208 6.15807 1.605C6.0835 1.37076 5.8531 1.20012 5.59927 1.08889C5.34291 0.976553 5.04922 0.91875 4.82827 0.91875C4.68833 0.91875 4.54698 0.941981 4.42757 0.989677C3.1835 1.46474 2.07519 2.18862 1.12541 3.13839L1.12538 3.13836L1.12391 3.13996L1.12342 3.1405C0.876251 3.41014 0.627715 3.68127 0.379082 3.99769C0.379038 3.99775 0.378994 3.9978 0.37895 3.99786L0.289223 4.11002Z" fill="white" stroke="white" stroke-width="0.1"/>
</svg>
