<svg width="35" height="35" viewBox="0 0 35 35" fill="none" xmlns="http://www.w3.org/2000/svg">
<path d="M17.0733 34.1466C26.5026 34.1466 34.1466 26.5026 34.1466 17.0733C34.1466 7.64398 26.5026 0 17.0733 0C7.64398 0 0 7.64398 0 17.0733C0 26.5026 7.64398 34.1466 17.0733 34.1466Z" fill="#55ACEE"/>
<path d="M27.5283 12.2702C26.7966 12.5946 26.0096 12.8141 25.1842 12.9121C26.0269 12.4071 26.6737 11.6082 26.9789 10.6547C26.1904 11.1225 25.3166 11.4618 24.3874 11.6447C23.643 10.8519 22.5823 10.3564 21.4078 10.3564C19.1545 10.3564 17.3268 12.1841 17.3268 14.4374C17.3268 14.7573 17.3631 15.0687 17.4331 15.3675C14.0414 15.1974 11.0342 13.5728 9.0212 11.103C8.66998 11.7056 8.4685 12.4071 8.4685 13.1549C8.4685 14.5704 9.1895 15.8201 10.2839 16.5517C9.61528 16.5307 8.98559 16.3472 8.43563 16.0407C8.43533 16.0581 8.43533 16.0754 8.43533 16.0925C8.43533 18.0698 9.84263 19.7191 11.7092 20.0937C11.3671 20.1875 11.0058 20.2371 10.6342 20.2371C10.3707 20.2371 10.1153 20.2118 9.86637 20.1644C10.3856 21.7853 11.8924 22.9653 13.6786 22.9984C12.2817 24.0932 10.5222 24.7454 8.60972 24.7454C8.28102 24.7454 7.95537 24.7262 7.63672 24.6882C9.44181 25.8465 11.5875 26.5219 13.892 26.5219C21.3984 26.5219 25.5035 20.3034 25.5035 14.9101C25.5035 14.7333 25.4995 14.5571 25.4916 14.3824C26.2896 13.8071 26.9814 13.0886 27.5283 12.2702Z" fill="#F1F2F2"/>
</svg>
