<svg width="35" height="35" viewBox="0 0 35 35" fill="none" xmlns="http://www.w3.org/2000/svg">
<path d="M17.3478 35C26.9288 35 34.6957 27.165 34.6957 17.5C34.6957 7.83502 26.9288 0 17.3478 0C7.76689 0 0 7.83502 0 17.5C0 27.165 7.76689 35 17.3478 35Z" fill="#D22215"/>
<path d="M23.1525 10.4102H11.5445C9.26709 10.4102 7.4209 12.2726 7.4209 14.57V20.4237C7.4209 22.7211 9.26715 24.5835 11.5445 24.5835H23.1525C25.43 24.5835 27.2762 22.7211 27.2762 20.4237V14.57C27.2762 12.2726 25.4299 10.4102 23.1525 10.4102ZM20.3637 17.7816L14.9343 20.3938C14.7896 20.4634 14.6224 20.3571 14.6224 20.1955V14.8078C14.6224 14.6437 14.794 14.5374 14.9389 14.6116L20.3682 17.3871C20.5299 17.4696 20.527 17.7031 20.3637 17.7816Z" fill="white"/>
</svg>
